<?xml version="1.0" encoding="utf-8" standalone="no"?>
<!DOCTYPE svg PUBLIC "-//W3C//DTD SVG 1.1//EN"
  "http://www.w3.org/Graphics/SVG/1.1/DTD/svg11.dtd">
<svg xmlns:xlink="http://www.w3.org/1999/xlink" width="460.8pt" height="345.6pt" viewBox="0 0 460.8 345.6" xmlns="http://www.w3.org/2000/svg" version="1.1">
 <metadata>
  <rdf:RDF xmlns:dc="http://purl.org/dc/elements/1.1/" xmlns:cc="http://creativecommons.org/ns#" xmlns:rdf="http://www.w3.org/1999/02/22-rdf-syntax-ns#">
   <cc:Work>
    <dc:type rdf:resource="http://purl.org/dc/dcmitype/StillImage"/>
    <dc:date>2026-06-18T00:06:58.001353</dc:date>
    <dc:format>image/svg+xml</dc:format>
    <dc:creator>
     <cc:Agent>
      <dc:title>Matplotlib v3.10.1+dfsg1, https://matplotlib.org/</dc:title>
     </cc:Agent>
    </dc:creator>
   </cc:Work>
  </rdf:RDF>
 </metadata>
 <defs>
  <style type="text/css">*{stroke-linejoin: round; stroke-linecap: butt}</style>
 </defs>
 <g id="figure_1">
  <g id="patch_1">
   <path d="M 0 345.6 
L 460.8 345.6 
L 460.8 0 
L 0 0 
L 0 345.6 
z
" style="fill: none"/>
  </g>
  <g id="axes_1">
   <g id="patch_2">
    <path d="M 57.6 119.740235 
L 414.72 119.740235 
L 414.72 41.472 
L 57.6 41.472 
L 57.6 119.740235 
z
" style="fill: none"/>
   </g>
   <g id="matplotlib.axis_1">
    <g id="xtick_1">
     <g id="line2d_1">
      <path d="M 73.832727 119.740235 
L 73.832727 41.472 
" clip-path="url(#pc68c12d423)" style="fill: none; stroke: #b0b0b0; stroke-width: 0.8; stroke-linecap: square"/>
     </g>
     <g id="line2d_2">
      <defs>
       <path id="m61b9ecc10c" d="M 0 0 
L 0 3.5 
" style="stroke: #000000; stroke-width: 0.8"/>
      </defs>
      <g>
       <use xlink:href="#m61b9ecc10c" x="73.832727" y="119.740235" style="stroke: #000000; stroke-width: 0.8"/>
      </g>
     </g>
     <g id="text_1">
      <!-- 0.0 -->
      <g transform="translate(65.881165 134.338673) scale(0.1 -0.1)">
       <defs>
        <path id="DejaVuSans-30" d="M 2034 4250 
Q 1547 4250 1301 3770 
Q 1056 3291 1056 2328 
Q 1056 1369 1301 889 
Q 1547 409 2034 409 
Q 2525 409 2770 889 
Q 3016 1369 3016 2328 
Q 3016 3291 2770 3770 
Q 2525 4250 2034 4250 
z
M 2034 4750 
Q 2819 4750 3233 4129 
Q 3647 3509 3647 2328 
Q 3647 1150 3233 529 
Q 2819 -91 2034 -91 
Q 1250 -91 836 529 
Q 422 1150 422 2328 
Q 422 3509 836 4129 
Q 1250 4750 2034 4750 
z
" transform="scale(0.015625)"/>
        <path id="DejaVuSans-2e" d="M 684 794 
L 1344 794 
L 1344 0 
L 684 0 
L 684 794 
z
" transform="scale(0.015625)"/>
       </defs>
       <use xlink:href="#DejaVuSans-30"/>
       <use xlink:href="#DejaVuSans-2e" transform="translate(63.623047 0)"/>
       <use xlink:href="#DejaVuSans-30" transform="translate(95.410156 0)"/>
      </g>
     </g>
    </g>
    <g id="xtick_2">
     <g id="line2d_3">
      <path d="M 114.516254 119.740235 
L 114.516254 41.472 
" clip-path="url(#pc68c12d423)" style="fill: none; stroke: #b0b0b0; stroke-width: 0.8; stroke-linecap: square"/>
     </g>
     <g id="line2d_4">
      <g>
       <use xlink:href="#m61b9ecc10c" x="114.516254" y="119.740235" style="stroke: #000000; stroke-width: 0.8"/>
      </g>
     </g>
     <g id="text_2">
      <!-- 0.5 -->
      <g transform="translate(106.564692 134.338673) scale(0.1 -0.1)">
       <defs>
        <path id="DejaVuSans-35" d="M 691 4666 
L 3169 4666 
L 3169 4134 
L 1269 4134 
L 1269 2991 
Q 1406 3038 1543 3061 
Q 1681 3084 1819 3084 
Q 2600 3084 3056 2656 
Q 3513 2228 3513 1497 
Q 3513 744 3044 326 
Q 2575 -91 1722 -91 
Q 1428 -91 1123 -41 
Q 819 9 494 109 
L 494 744 
Q 775 591 1075 516 
Q 1375 441 1709 441 
Q 2250 441 2565 725 
Q 2881 1009 2881 1497 
Q 2881 1984 2565 2268 
Q 2250 2553 1709 2553 
Q 1456 2553 1204 2497 
Q 953 2441 691 2322 
L 691 4666 
z
" transform="scale(0.015625)"/>
       </defs>
       <use xlink:href="#DejaVuSans-30"/>
       <use xlink:href="#DejaVuSans-2e" transform="translate(63.623047 0)"/>
       <use xlink:href="#DejaVuSans-35" transform="translate(95.410156 0)"/>
      </g>
     </g>
    </g>
    <g id="xtick_3">
     <g id="line2d_5">
      <path d="M 155.199781 119.740235 
L 155.199781 41.472 
" clip-path="url(#pc68c12d423)" style="fill: none; stroke: #b0b0b0; stroke-width: 0.8; stroke-linecap: square"/>
     </g>
     <g id="line2d_6">
      <g>
       <use xlink:href="#m61b9ecc10c" x="155.199781" y="119.740235" style="stroke: #000000; stroke-width: 0.8"/>
      </g>
     </g>
     <g id="text_3">
      <!-- 1.0 -->
      <g transform="translate(147.248219 134.338673) scale(0.1 -0.1)">
       <defs>
        <path id="DejaVuSans-31" d="M 794 531 
L 1825 531 
L 1825 4091 
L 703 3866 
L 703 4441 
L 1819 4666 
L 2450 4666 
L 2450 531 
L 3481 531 
L 3481 0 
L 794 0 
L 794 531 
z
" transform="scale(0.015625)"/>
       </defs>
       <use xlink:href="#DejaVuSans-31"/>
       <use xlink:href="#DejaVuSans-2e" transform="translate(63.623047 0)"/>
       <use xlink:href="#DejaVuSans-30" transform="translate(95.410156 0)"/>
      </g>
     </g>
    </g>
    <g id="xtick_4">
     <g id="line2d_7">
      <path d="M 195.883308 119.740235 
L 195.883308 41.472 
" clip-path="url(#pc68c12d423)" style="fill: none; stroke: #b0b0b0; stroke-width: 0.8; stroke-linecap: square"/>
     </g>
     <g id="line2d_8">
      <g>
       <use xlink:href="#m61b9ecc10c" x="195.883308" y="119.740235" style="stroke: #000000; stroke-width: 0.8"/>
      </g>
     </g>
     <g id="text_4">
      <!-- 1.5 -->
      <g transform="translate(187.931746 134.338673) scale(0.1 -0.1)">
       <use xlink:href="#DejaVuSans-31"/>
       <use xlink:href="#DejaVuSans-2e" transform="translate(63.623047 0)"/>
       <use xlink:href="#DejaVuSans-35" transform="translate(95.410156 0)"/>
      </g>
     </g>
    </g>
    <g id="xtick_5">
     <g id="line2d_9">
      <path d="M 236.566835 119.740235 
L 236.566835 41.472 
" clip-path="url(#pc68c12d423)" style="fill: none; stroke: #b0b0b0; stroke-width: 0.8; stroke-linecap: square"/>
     </g>
     <g id="line2d_10">
      <g>
       <use xlink:href="#m61b9ecc10c" x="236.566835" y="119.740235" style="stroke: #000000; stroke-width: 0.8"/>
      </g>
     </g>
     <g id="text_5">
      <!-- 2.0 -->
      <g transform="translate(228.615273 134.338673) scale(0.1 -0.1)">
       <defs>
        <path id="DejaVuSans-32" d="M 1228 531 
L 3431 531 
L 3431 0 
L 469 0 
L 469 531 
Q 828 903 1448 1529 
Q 2069 2156 2228 2338 
Q 2531 2678 2651 2914 
Q 2772 3150 2772 3378 
Q 2772 3750 2511 3984 
Q 2250 4219 1831 4219 
Q 1534 4219 1204 4116 
Q 875 4013 500 3803 
L 500 4441 
Q 881 4594 1212 4672 
Q 1544 4750 1819 4750 
Q 2544 4750 2975 4387 
Q 3406 4025 3406 3419 
Q 3406 3131 3298 2873 
Q 3191 2616 2906 2266 
Q 2828 2175 2409 1742 
Q 1991 1309 1228 531 
z
" transform="scale(0.015625)"/>
       </defs>
       <use xlink:href="#DejaVuSans-32"/>
       <use xlink:href="#DejaVuSans-2e" transform="translate(63.623047 0)"/>
       <use xlink:href="#DejaVuSans-30" transform="translate(95.410156 0)"/>
      </g>
     </g>
    </g>
    <g id="xtick_6">
     <g id="line2d_11">
      <path d="M 277.250362 119.740235 
L 277.250362 41.472 
" clip-path="url(#pc68c12d423)" style="fill: none; stroke: #b0b0b0; stroke-width: 0.8; stroke-linecap: square"/>
     </g>
     <g id="line2d_12">
      <g>
       <use xlink:href="#m61b9ecc10c" x="277.250362" y="119.740235" style="stroke: #000000; stroke-width: 0.8"/>
      </g>
     </g>
     <g id="text_6">
      <!-- 2.5 -->
      <g transform="translate(269.2988 134.338673) scale(0.1 -0.1)">
       <use xlink:href="#DejaVuSans-32"/>
       <use xlink:href="#DejaVuSans-2e" transform="translate(63.623047 0)"/>
       <use xlink:href="#DejaVuSans-35" transform="translate(95.410156 0)"/>
      </g>
     </g>
    </g>
    <g id="xtick_7">
     <g id="line2d_13">
      <path d="M 317.933889 119.740235 
L 317.933889 41.472 
" clip-path="url(#pc68c12d423)" style="fill: none; stroke: #b0b0b0; stroke-width: 0.8; stroke-linecap: square"/>
     </g>
     <g id="line2d_14">
      <g>
       <use xlink:href="#m61b9ecc10c" x="317.933889" y="119.740235" style="stroke: #000000; stroke-width: 0.8"/>
      </g>
     </g>
     <g id="text_7">
      <!-- 3.0 -->
      <g transform="translate(309.982327 134.338673) scale(0.1 -0.1)">
       <defs>
        <path id="DejaVuSans-33" d="M 2597 2516 
Q 3050 2419 3304 2112 
Q 3559 1806 3559 1356 
Q 3559 666 3084 287 
Q 2609 -91 1734 -91 
Q 1441 -91 1130 -33 
Q 819 25 488 141 
L 488 750 
Q 750 597 1062 519 
Q 1375 441 1716 441 
Q 2309 441 2620 675 
Q 2931 909 2931 1356 
Q 2931 1769 2642 2001 
Q 2353 2234 1838 2234 
L 1294 2234 
L 1294 2753 
L 1863 2753 
Q 2328 2753 2575 2939 
Q 2822 3125 2822 3475 
Q 2822 3834 2567 4026 
Q 2313 4219 1838 4219 
Q 1578 4219 1281 4162 
Q 984 4106 628 3988 
L 628 4550 
Q 988 4650 1302 4700 
Q 1616 4750 1894 4750 
Q 2613 4750 3031 4423 
Q 3450 4097 3450 3541 
Q 3450 3153 3228 2886 
Q 3006 2619 2597 2516 
z
" transform="scale(0.015625)"/>
       </defs>
       <use xlink:href="#DejaVuSans-33"/>
       <use xlink:href="#DejaVuSans-2e" transform="translate(63.623047 0)"/>
       <use xlink:href="#DejaVuSans-30" transform="translate(95.410156 0)"/>
      </g>
     </g>
    </g>
    <g id="xtick_8">
     <g id="line2d_15">
      <path d="M 358.617416 119.740235 
L 358.617416 41.472 
" clip-path="url(#pc68c12d423)" style="fill: none; stroke: #b0b0b0; stroke-width: 0.8; stroke-linecap: square"/>
     </g>
     <g id="line2d_16">
      <g>
       <use xlink:href="#m61b9ecc10c" x="358.617416" y="119.740235" style="stroke: #000000; stroke-width: 0.8"/>
      </g>
     </g>
     <g id="text_8">
      <!-- 3.5 -->
      <g transform="translate(350.665854 134.338673) scale(0.1 -0.1)">
       <use xlink:href="#DejaVuSans-33"/>
       <use xlink:href="#DejaVuSans-2e" transform="translate(63.623047 0)"/>
       <use xlink:href="#DejaVuSans-35" transform="translate(95.410156 0)"/>
      </g>
     </g>
    </g>
    <g id="xtick_9">
     <g id="line2d_17">
      <path d="M 399.300943 119.740235 
L 399.300943 41.472 
" clip-path="url(#pc68c12d423)" style="fill: none; stroke: #b0b0b0; stroke-width: 0.8; stroke-linecap: square"/>
     </g>
     <g id="line2d_18">
      <g>
       <use xlink:href="#m61b9ecc10c" x="399.300943" y="119.740235" style="stroke: #000000; stroke-width: 0.8"/>
      </g>
     </g>
     <g id="text_9">
      <!-- 4.0 -->
      <g transform="translate(391.349381 134.338673) scale(0.1 -0.1)">
       <defs>
        <path id="DejaVuSans-34" d="M 2419 4116 
L 825 1625 
L 2419 1625 
L 2419 4116 
z
M 2253 4666 
L 3047 4666 
L 3047 1625 
L 3713 1625 
L 3713 1100 
L 3047 1100 
L 3047 0 
L 2419 0 
L 2419 1100 
L 313 1100 
L 313 1709 
L 2253 4666 
z
" transform="scale(0.015625)"/>
       </defs>
       <use xlink:href="#DejaVuSans-34"/>
       <use xlink:href="#DejaVuSans-2e" transform="translate(63.623047 0)"/>
       <use xlink:href="#DejaVuSans-30" transform="translate(95.410156 0)"/>
      </g>
     </g>
    </g>
   </g>
   <g id="matplotlib.axis_2">
    <g id="ytick_1">
     <g id="line2d_19">
      <path d="M 57.6 102.701151 
L 414.72 102.701151 
" clip-path="url(#pc68c12d423)" style="fill: none; stroke: #b0b0b0; stroke-width: 0.8; stroke-linecap: square"/>
     </g>
     <g id="line2d_20">
      <defs>
       <path id="m8188306392" d="M 0 0 
L -3.5 0 
" style="stroke: #000000; stroke-width: 0.8"/>
      </defs>
      <g>
       <use xlink:href="#m8188306392" x="57.6" y="102.701151" style="stroke: #000000; stroke-width: 0.8"/>
      </g>
     </g>
     <g id="text_10">
      <!-- −2.5 -->
      <g transform="translate(26.317187 106.50037) scale(0.1 -0.1)">
       <defs>
        <path id="DejaVuSans-2212" d="M 678 2272 
L 4684 2272 
L 4684 1741 
L 678 1741 
L 678 2272 
z
" transform="scale(0.015625)"/>
       </defs>
       <use xlink:href="#DejaVuSans-2212"/>
       <use xlink:href="#DejaVuSans-32" transform="translate(83.789062 0)"/>
       <use xlink:href="#DejaVuSans-2e" transform="translate(147.412109 0)"/>
       <use xlink:href="#DejaVuSans-35" transform="translate(179.199219 0)"/>
      </g>
     </g>
    </g>
    <g id="ytick_2">
     <g id="line2d_21">
      <path d="M 57.6 79.835129 
L 414.72 79.835129 
" clip-path="url(#pc68c12d423)" style="fill: none; stroke: #b0b0b0; stroke-width: 0.8; stroke-linecap: square"/>
     </g>
     <g id="line2d_22">
      <g>
       <use xlink:href="#m8188306392" x="57.6" y="79.835129" style="stroke: #000000; stroke-width: 0.8"/>
      </g>
     </g>
     <g id="text_11">
      <!-- 0.0 -->
      <g transform="translate(34.696875 83.634348) scale(0.1 -0.1)">
       <use xlink:href="#DejaVuSans-30"/>
       <use xlink:href="#DejaVuSans-2e" transform="translate(63.623047 0)"/>
       <use xlink:href="#DejaVuSans-30" transform="translate(95.410156 0)"/>
      </g>
     </g>
    </g>
    <g id="ytick_3">
     <g id="line2d_23">
      <path d="M 57.6 56.969106 
L 414.72 56.969106 
" clip-path="url(#pc68c12d423)" style="fill: none; stroke: #b0b0b0; stroke-width: 0.8; stroke-linecap: square"/>
     </g>
     <g id="line2d_24">
      <g>
       <use xlink:href="#m8188306392" x="57.6" y="56.969106" style="stroke: #000000; stroke-width: 0.8"/>
      </g>
     </g>
     <g id="text_12">
      <!-- 2.5 -->
      <g transform="translate(34.696875 60.768325) scale(0.1 -0.1)">
       <use xlink:href="#DejaVuSans-32"/>
       <use xlink:href="#DejaVuSans-2e" transform="translate(63.623047 0)"/>
       <use xlink:href="#DejaVuSans-35" transform="translate(95.410156 0)"/>
      </g>
     </g>
    </g>
   </g>
   <g id="line2d_25">
    <path d="M 73.832727 79.240919 
L 74.646398 76.640891 
L 76.273739 64.560175 
L 77.087409 57.730233 
L 77.90108 56.428734 
L 78.714751 49.757266 
L 79.528421 48.81924 
L 80.342092 45.741692 
L 81.155762 46.646327 
L 81.969433 49.290472 
L 82.783103 50.597617 
L 83.596774 60.413565 
L 84.410444 61.821343 
L 85.224115 66.754534 
L 86.037785 67.278897 
L 86.851456 78.536038 
L 87.665126 87.49342 
L 88.478797 85.544054 
L 89.292468 87.885107 
L 90.106138 99.328296 
L 90.919809 94.842689 
L 91.733479 102.759129 
L 92.54715 105.431254 
L 93.36082 108.53512 
L 94.174491 104.640362 
L 94.988161 111.601532 
L 96.615502 104.579957 
L 97.429173 107.758721 
L 98.242843 94.861895 
L 99.056514 95.99302 
L 99.870185 91.078031 
L 100.683855 83.722212 
L 102.311196 71.28343 
L 103.124867 63.804719 
L 103.938537 60.650944 
L 104.752208 60.172556 
L 105.565878 49.581505 
L 106.379549 50.361262 
L 107.193219 49.878722 
L 108.00689 49.243655 
L 108.82056 45.029647 
L 109.634231 56.530195 
L 110.447902 54.773549 
L 111.261572 58.358159 
L 112.075243 60.04908 
L 112.888913 66.854255 
L 113.702584 74.777321 
L 114.516254 80.898325 
L 115.329925 83.321818 
L 116.143595 90.4619 
L 116.957266 94.376401 
L 117.770936 103.196063 
L 118.584607 104.913517 
L 119.398278 107.720766 
L 120.211948 106.243947 
L 121.839289 111.643195 
L 122.65296 110.307942 
L 123.46663 107.956696 
L 124.280301 101.455458 
L 125.093971 92.649879 
L 125.907642 93.816066 
L 126.721312 89.677702 
L 127.534983 82.744548 
L 128.348653 72.704887 
L 129.162324 70.782158 
L 129.975995 65.387306 
L 130.789665 57.823279 
L 131.603336 58.05991 
L 132.417006 54.726382 
L 133.230677 46.267076 
L 134.044347 49.858224 
L 134.858018 47.844303 
L 135.671688 45.189971 
L 136.485359 49.584723 
L 137.299029 49.733999 
L 138.1127 57.307871 
L 138.92637 61.95682 
L 139.740041 65.235501 
L 140.553712 73.313931 
L 141.367382 79.131351 
L 142.181053 82.223916 
L 142.994723 89.398158 
L 143.808394 94.481521 
L 144.622064 101.246677 
L 145.435735 99.77743 
L 146.249405 102.21591 
L 147.063076 109.019319 
L 147.876746 105.219052 
L 148.690417 116.182588 
L 150.317758 107.883375 
L 151.131429 105.855456 
L 151.945099 95.22845 
L 152.75877 94.887872 
L 153.57244 93.393725 
L 154.386111 87.97361 
L 155.199781 79.629997 
L 156.013452 78.942721 
L 156.827122 66.007012 
L 157.640793 62.219208 
L 158.454463 59.594734 
L 160.081805 50.223555 
L 160.895475 46.928508 
L 161.709146 47.996988 
L 162.522816 46.184374 
L 163.336487 53.470067 
L 164.150157 54.521843 
L 164.963828 51.596383 
L 165.777498 62.174669 
L 166.591169 65.180619 
L 167.404839 74.297404 
L 168.21851 80.381973 
L 169.03218 82.520158 
L 169.845851 88.07656 
L 170.659522 87.791014 
L 171.473192 99.576402 
L 172.286863 97.441043 
L 173.100533 104.667259 
L 173.914204 107.732718 
L 174.727874 106.256225 
L 175.541545 115.655025 
L 176.355215 108.737622 
L 177.168886 108.592666 
L 177.982556 108.186497 
L 178.796227 107.378563 
L 180.423568 98.436874 
L 181.237239 87.267615 
L 182.050909 88.548233 
L 182.86458 72.048614 
L 183.67825 71.046149 
L 184.491921 64.797938 
L 185.305591 62.875276 
L 186.119262 62.558422 
L 186.932932 53.405583 
L 187.746603 48.041093 
L 188.560273 52.940506 
L 189.373944 50.483701 
L 190.187614 53.814587 
L 191.001285 50.934413 
L 193.442297 62.39697 
L 194.255967 72.76477 
L 195.069638 75.134655 
L 195.883308 80.680258 
L 196.696979 90.85718 
L 197.510649 94.355945 
L 198.32432 93.079004 
L 199.13799 99.058839 
L 199.951661 99.687717 
L 200.765332 105.324381 
L 201.579002 109.540815 
L 202.392673 112.127816 
L 203.206343 113.55411 
L 204.020014 112.415255 
L 204.833684 103.482304 
L 205.647355 110.838483 
L 206.461025 102.242471 
L 207.274696 90.278769 
L 208.088366 90.193062 
L 208.902037 79.63214 
L 209.715707 75.780967 
L 210.529378 76.569435 
L 211.343049 69.94867 
L 212.156719 58.584417 
L 212.97039 59.172325 
L 213.78406 55.334381 
L 214.597731 47.398467 
L 215.411401 51.347561 
L 216.225072 49.9655 
L 217.038742 52.834656 
L 217.852413 51.155497 
L 218.666083 52.349643 
L 219.479754 58.904414 
L 221.920766 71.185905 
L 223.548107 84.432562 
L 224.361777 87.099339 
L 225.175448 97.551906 
L 225.989118 100.21977 
L 226.802789 98.149627 
L 227.616459 104.924883 
L 229.2438 111.462142 
L 230.057471 110.343715 
L 230.871141 111.780611 
L 231.684812 108.61054 
L 232.498483 102.71027 
L 233.312153 105.806487 
L 234.125824 100.403253 
L 234.939494 89.330518 
L 235.753165 82.344609 
L 236.566835 78.29768 
L 237.380506 76.786507 
L 238.194176 70.894671 
L 239.007847 70.783977 
L 239.821517 57.947837 
L 240.635188 58.320923 
L 241.448859 50.191637 
L 242.262529 50.198205 
L 243.0762 47.047989 
L 243.88987 51.343575 
L 244.703541 49.301305 
L 245.517211 56.950977 
L 246.330882 51.962907 
L 247.144552 64.595417 
L 247.958223 65.21556 
L 248.771893 65.104906 
L 249.585564 79.598311 
L 250.399234 77.140993 
L 251.212905 87.70002 
L 252.840246 96.62118 
L 253.653917 104.975752 
L 254.467587 105.675737 
L 255.281258 108.054701 
L 256.094928 106.011724 
L 256.908599 112.182772 
L 257.722269 109.067678 
L 258.53594 107.588108 
L 259.34961 105.542429 
L 261.790622 90.455922 
L 262.604293 92.529756 
L 263.417963 86.230105 
L 264.231634 74.016691 
L 265.045304 70.822101 
L 265.858975 62.271956 
L 266.672645 60.110435 
L 267.486316 61.479817 
L 268.299986 51.942449 
L 269.113657 47.52685 
L 269.927327 52.031295 
L 270.740998 46.109829 
L 271.554668 50.958688 
L 272.368339 52.05098 
L 275.623021 68.368323 
L 276.436692 77.494051 
L 277.250362 76.744699 
L 278.877703 92.816791 
L 279.691374 94.498727 
L 280.505044 98.597799 
L 281.318715 104.179262 
L 282.132386 108.270453 
L 282.946056 107.144786 
L 283.759727 110.368369 
L 284.573397 107.014655 
L 285.387068 114.45253 
L 287.014409 100.879905 
L 287.828079 98.922523 
L 288.64175 93.761043 
L 289.45542 89.979159 
L 290.269091 84.510289 
L 291.082761 75.805765 
L 291.896432 71.76912 
L 292.710103 69.901743 
L 293.523773 62.867906 
L 294.337444 57.379042 
L 295.151114 59.300109 
L 295.964785 50.368178 
L 296.778455 47.515725 
L 297.592126 53.110194 
L 298.405796 56.539586 
L 299.219467 51.300306 
L 300.033137 61.569629 
L 300.846808 57.885255 
L 301.660478 62.605274 
L 302.474149 69.365069 
L 304.10149 74.395078 
L 304.915161 84.565641 
L 305.728831 90.339401 
L 306.542502 94.695405 
L 308.169843 106.431907 
L 308.983513 104.05273 
L 309.797184 105.199709 
L 310.610854 108.722333 
L 311.424525 113.14337 
L 312.238195 109.676438 
L 313.051866 104.054931 
L 313.865537 102.861095 
L 314.679207 99.177053 
L 316.306548 88.502654 
L 317.120219 87.300938 
L 317.933889 81.225405 
L 318.74756 70.733677 
L 319.56123 70.580013 
L 320.374901 65.127599 
L 321.188571 61.26998 
L 322.002242 54.157751 
L 322.815913 54.528003 
L 323.629583 48.526685 
L 324.443254 49.205027 
L 325.256924 45.472719 
L 326.070595 52.700149 
L 327.697936 54.812502 
L 328.511606 62.029326 
L 330.138947 68.78418 
L 330.952618 79.637511 
L 331.766288 84.238855 
L 332.579959 85.971098 
L 334.2073 100.067656 
L 335.020971 103.672073 
L 335.834641 105.958311 
L 336.648312 110.230735 
L 337.461982 103.895319 
L 338.275653 115.386592 
L 339.089323 111.078553 
L 339.902994 108.939645 
L 340.716664 107.439881 
L 341.530335 104.096969 
L 342.344005 96.581222 
L 343.157676 92.254814 
L 343.971347 87.288195 
L 344.785017 78.437398 
L 345.598688 78.749107 
L 346.412358 73.484376 
L 347.226029 68.947823 
L 348.039699 57.075901 
L 348.85337 56.770997 
L 349.66704 53.642495 
L 350.480711 53.187281 
L 351.294381 49.132274 
L 352.108052 48.199361 
L 352.921722 47.956215 
L 353.735393 56.944934 
L 354.549064 56.017439 
L 355.362734 55.674118 
L 356.176405 60.910585 
L 356.990075 70.799226 
L 357.803746 78.280083 
L 358.617416 77.461452 
L 359.431087 86.711972 
L 360.244757 92.666025 
L 361.058428 94.793528 
L 361.872098 102.566741 
L 362.685769 101.657507 
L 363.49944 105.753849 
L 364.31311 112.769065 
L 365.126781 107.629416 
L 365.940451 114.521803 
L 366.754122 112.182298 
L 367.567792 101.458727 
L 368.381463 103.117825 
L 370.008804 94.073667 
L 370.822474 89.81894 
L 371.636145 84.96764 
L 372.449815 76.203883 
L 373.263486 71.175721 
L 374.077157 63.080477 
L 375.704498 60.018883 
L 377.331839 47.903966 
L 378.145509 50.645031 
L 378.95918 46.019977 
L 379.77285 56.005524 
L 380.586521 54.150774 
L 381.400191 51.142041 
L 383.027532 63.412193 
L 383.841203 66.66799 
L 384.654874 65.961734 
L 385.468544 80.331535 
L 386.282215 79.199675 
L 387.095885 86.064873 
L 387.909556 98.7234 
L 388.723226 98.142296 
L 389.536897 105.898378 
L 390.350567 107.837475 
L 391.164238 106.239182 
L 392.791579 115.202449 
L 393.605249 107.662403 
L 394.41892 103.866024 
L 395.232591 110.059282 
L 396.046261 104.240128 
L 396.859932 95.040789 
L 397.673602 93.352889 
L 398.487273 84.978771 
L 398.487273 84.978771 
" clip-path="url(#pc68c12d423)" style="fill: none; stroke: #1f77b4; stroke-width: 1.5; stroke-linecap: square"/>
   </g>
   <g id="line2d_26">
    <path d="M 73.832727 70.68872 
L 74.646398 71.270764 
L 76.273739 73.949349 
L 77.087409 74.759172 
L 77.90108 75.172783 
L 78.714751 75.759181 
L 79.528421 76.928931 
L 80.342092 78.76227 
L 81.969433 82.98646 
L 82.783103 84.073665 
L 83.596774 83.532813 
L 84.410444 80.973789 
L 85.224115 76.574045 
L 86.851456 65.876878 
L 87.665126 62.558772 
L 88.478797 62.600722 
L 89.292468 65.545472 
L 91.733479 78.160114 
L 92.54715 80.259716 
L 93.36082 80.869579 
L 94.174491 80.333254 
L 95.801832 78.309737 
L 96.615502 78.324994 
L 97.429173 79.927029 
L 98.242843 83.528536 
L 100.683855 98.933705 
L 101.497526 100.991332 
L 102.311196 99.816323 
L 103.124867 95.861372 
L 104.752208 85.008976 
L 105.565878 81.190051 
L 106.379549 79.223111 
L 107.193219 78.911059 
L 108.00689 79.715687 
L 108.82056 80.855946 
L 109.634231 81.494696 
L 110.447902 80.851622 
L 111.261572 78.438304 
L 112.075243 74.121402 
L 113.702584 62.878051 
L 114.516254 59.230954 
L 115.329925 58.808305 
L 116.143595 61.491673 
L 116.957266 66.289751 
L 118.584607 76.554348 
L 119.398278 79.707826 
L 120.211948 80.94737 
L 121.025619 80.656542 
L 122.65296 78.373356 
L 123.46663 77.967405 
L 124.280301 79.067405 
L 125.093971 82.08511 
L 127.534983 96.2143 
L 128.348653 98.554497 
L 129.162324 97.71329 
L 129.975995 94.014928 
L 131.603336 83.674028 
L 132.417006 79.798127 
L 133.230677 77.874276 
L 134.044347 77.689031 
L 134.858018 78.811827 
L 136.485359 82.260816 
L 137.299029 83.03386 
L 138.1127 82.18359 
L 138.92637 79.258651 
L 139.740041 74.476941 
L 141.367382 63.742542 
L 142.181053 61.183589 
L 142.994723 61.729293 
L 143.808394 65.061974 
L 145.435735 75.337686 
L 146.249405 79.285902 
L 147.063076 81.288745 
L 147.876746 81.584791 
L 148.690417 80.637388 
L 150.317758 77.70933 
L 151.131429 77.24255 
L 151.945099 78.365057 
L 152.75877 81.313429 
L 153.57244 85.689509 
L 155.199781 95.057918 
L 156.013452 97.143826 
L 156.827122 96.412921 
L 157.640793 93.033217 
L 159.268134 82.949305 
L 160.081805 79.344076 
L 160.895475 77.602392 
L 161.709146 77.623363 
L 162.522816 78.931216 
L 164.150157 82.542983 
L 164.963828 83.375786 
L 165.777498 82.647484 
L 166.591169 79.987184 
L 169.03218 67.274973 
L 169.845851 65.95339 
L 170.659522 67.278196 
L 171.473192 70.585498 
L 173.100533 79.12094 
L 173.914204 81.989501 
L 174.727874 83.225276 
L 175.541545 82.829613 
L 176.355215 81.254085 
L 177.982556 76.928771 
L 178.796227 75.55375 
L 179.609897 75.628781 
L 180.423568 77.66362 
L 181.237239 81.69031 
L 182.86458 91.587221 
L 183.67825 94.282112 
L 184.491921 93.69515 
L 185.305591 90.336305 
L 186.932932 80.900191 
L 187.746603 77.568719 
L 188.560273 75.880759 
L 189.373944 76.012338 
L 190.187614 77.574958 
L 192.628626 84.418487 
L 193.442297 85.264279 
L 194.255967 84.524634 
L 195.069638 82.217097 
L 196.696979 75.616136 
L 197.510649 73.744322 
L 198.32432 74.276083 
L 199.13799 76.724249 
L 200.765332 83.51175 
L 201.579002 85.904955 
L 202.392673 86.923641 
L 203.206343 86.416966 
L 204.020014 84.543735 
L 204.833684 81.69589 
L 206.461025 75.196458 
L 207.274696 72.764207 
L 208.088366 71.465048 
L 208.902037 71.559277 
L 209.715707 73.001355 
L 211.343049 77.453348 
L 212.156719 79.080468 
L 212.97039 78.897745 
L 213.78406 76.867294 
L 215.411401 71.163873 
L 216.225072 69.385988 
L 217.038742 69.331447 
L 217.852413 70.951717 
L 218.666083 73.876623 
L 220.293424 81.732461 
L 221.107095 85.737865 
L 221.920766 89.164284 
L 222.734436 91.589566 
L 223.548107 92.758281 
L 224.361777 92.722331 
L 225.989118 90.621062 
L 226.802789 90.214228 
L 227.616459 90.534543 
L 228.43013 91.459399 
L 229.2438 92.795218 
L 230.057471 93.90571 
L 230.871141 94.075675 
L 231.684812 92.919742 
L 232.498483 90.410705 
L 233.312153 86.717235 
L 236.566835 68.835418 
L 237.380506 65.418336 
L 238.194176 63.064808 
L 239.007847 61.906932 
L 239.821517 61.907641 
L 240.635188 62.484169 
L 241.448859 62.896421 
L 242.262529 62.778883 
L 243.88987 61.376259 
L 244.703541 61.391905 
L 245.517211 62.592874 
L 246.330882 65.14298 
L 247.144552 68.82232 
L 248.771893 78.530461 
L 250.399234 88.820887 
L 251.212905 93.326959 
L 252.026576 96.970637 
L 252.840246 99.689379 
L 253.653917 101.458184 
L 254.467587 102.601461 
L 255.281258 103.414782 
L 256.094928 103.886263 
L 256.908599 103.822945 
L 257.722269 103.250306 
L 258.53594 102.093163 
L 259.34961 99.994066 
L 260.163281 96.903032 
L 260.976951 92.85633 
L 262.604293 82.702718 
L 264.231634 71.971156 
L 265.858975 62.848648 
L 266.672645 59.292742 
L 267.486316 56.465508 
L 268.299986 54.654839 
L 269.113657 53.732668 
L 269.927327 53.154302 
L 270.740998 53.163294 
L 271.554668 53.877307 
L 272.368339 55.375496 
L 273.18201 57.930437 
L 273.99568 61.505502 
L 274.809351 65.973306 
L 276.436692 76.648425 
L 278.877703 93.257674 
L 279.691374 97.927756 
L 280.505044 101.841958 
L 281.318715 104.759243 
L 282.132386 106.693951 
L 282.946056 107.828613 
L 283.759727 108.115126 
L 284.573397 107.553434 
L 285.387068 106.121299 
L 286.200738 104.064608 
L 287.014409 101.377569 
L 287.828079 97.653008 
L 289.45542 87.849046 
L 292.710103 65.849732 
L 293.523773 61.20241 
L 294.337444 57.380932 
L 295.151114 54.402004 
L 295.964785 52.492276 
L 296.778455 51.593164 
L 297.592126 51.264625 
L 298.405796 51.830434 
L 299.219467 53.723738 
L 300.033137 56.519021 
L 300.846808 60.098425 
L 302.474149 68.884634 
L 307.356172 97.882332 
L 308.983513 104.712324 
L 309.797184 107.138876 
L 310.610854 108.374576 
L 311.424525 108.458033 
L 312.238195 107.743874 
L 313.051866 106.209583 
L 313.865537 103.502724 
L 314.679207 99.726064 
L 316.306548 90.061057 
L 320.374901 63.222091 
L 321.188571 59.024096 
L 322.002242 55.698155 
L 322.815913 53.234797 
L 323.629583 51.665697 
L 324.443254 50.96617 
L 325.256924 51.039335 
L 326.070595 51.871784 
L 326.884265 53.710708 
L 327.697936 56.758255 
L 328.511606 60.713364 
L 330.138947 70.798067 
L 334.2073 98.523052 
L 335.020971 102.846773 
L 335.834641 106.437791 
L 336.648312 109.089996 
L 337.461982 110.719521 
L 338.275653 110.949303 
L 339.089323 110.029438 
L 339.902994 108.393312 
L 340.716664 105.76773 
L 341.530335 102.23485 
L 342.344005 97.916164 
L 343.971347 87.241094 
L 347.226029 64.237225 
L 348.039699 59.664963 
L 348.85337 55.872521 
L 349.66704 52.847036 
L 350.480711 50.823569 
L 351.294381 49.930116 
L 352.108052 50.084264 
L 352.921722 51.058872 
L 353.735393 52.803384 
L 354.549064 55.633911 
L 355.362734 59.499775 
L 356.990075 68.842918 
L 361.872098 100.72232 
L 362.685769 104.54261 
L 363.49944 107.442057 
L 364.31311 109.156267 
L 365.126781 109.970801 
L 365.940451 109.795177 
L 366.754122 108.66032 
L 367.567792 106.800597 
L 368.381463 103.700384 
L 369.195133 99.478536 
L 370.822474 89.181926 
L 374.890827 61.490327 
L 375.704498 56.964632 
L 376.518168 53.360583 
L 377.331839 50.838973 
L 378.145509 49.203881 
L 378.95918 48.595739 
L 379.77285 49.076219 
L 380.586521 50.899038 
L 381.400191 54.108051 
L 383.027532 62.356702 
L 384.654874 72.728212 
L 387.909556 94.388504 
L 389.536897 102.797963 
L 390.350567 105.989488 
L 391.164238 108.462274 
L 391.977908 109.853225 
L 392.791579 110.078904 
L 393.605249 109.514204 
L 394.41892 107.906 
L 395.232591 104.904055 
L 396.046261 101.062891 
L 396.859932 96.658105 
L 398.487273 85.907428 
L 398.487273 85.907428 
" clip-path="url(#pc68c12d423)" style="fill: none; stroke: #ff7f0e; stroke-width: 1.5; stroke-linecap: square"/>
   </g>
   <g id="patch_3">
    <path d="M 57.6 119.740235 
L 57.6 41.472 
" style="fill: none; stroke: #000000; stroke-width: 0.8; stroke-linejoin: miter; stroke-linecap: square"/>
   </g>
   <g id="patch_4">
    <path d="M 414.72 119.740235 
L 414.72 41.472 
" style="fill: none; stroke: #000000; stroke-width: 0.8; stroke-linejoin: miter; stroke-linecap: square"/>
   </g>
   <g id="patch_5">
    <path d="M 57.6 119.740235 
L 414.72 119.740235 
" style="fill: none; stroke: #000000; stroke-width: 0.8; stroke-linejoin: miter; stroke-linecap: square"/>
   </g>
   <g id="patch_6">
    <path d="M 57.6 41.472 
L 414.72 41.472 
" style="fill: none; stroke: #000000; stroke-width: 0.8; stroke-linejoin: miter; stroke-linecap: square"/>
   </g>
   <g id="legend_1">
    <g id="patch_7">
     <path d="M 64.6 114.740235 
L 119.15 114.740235 
Q 121.15 114.740235 121.15 112.740235 
L 121.15 84.383985 
Q 121.15 82.383985 119.15 82.383985 
L 64.6 82.383985 
Q 62.6 82.383985 62.6 84.383985 
L 62.6 112.740235 
Q 62.6 114.740235 64.6 114.740235 
z
" style="fill: #ffffff; opacity: 0.8; stroke: #cccccc; stroke-linejoin: miter"/>
    </g>
    <g id="line2d_27">
     <path d="M 66.6 90.482423 
L 76.6 90.482423 
L 86.6 90.482423 
" style="fill: none; stroke: #1f77b4; stroke-width: 1.5; stroke-linecap: square"/>
    </g>
    <g id="text_13">
     <!-- alfa -->
     <g transform="translate(94.6 93.982423) scale(0.1 -0.1)">
      <defs>
       <path id="DejaVuSans-61" d="M 2194 1759 
Q 1497 1759 1228 1600 
Q 959 1441 959 1056 
Q 959 750 1161 570 
Q 1363 391 1709 391 
Q 2188 391 2477 730 
Q 2766 1069 2766 1631 
L 2766 1759 
L 2194 1759 
z
M 3341 1997 
L 3341 0 
L 2766 0 
L 2766 531 
Q 2569 213 2275 61 
Q 1981 -91 1556 -91 
Q 1019 -91 701 211 
Q 384 513 384 1019 
Q 384 1609 779 1909 
Q 1175 2209 1959 2209 
L 2766 2209 
L 2766 2266 
Q 2766 2663 2505 2880 
Q 2244 3097 1772 3097 
Q 1472 3097 1187 3025 
Q 903 2953 641 2809 
L 641 3341 
Q 956 3463 1253 3523 
Q 1550 3584 1831 3584 
Q 2591 3584 2966 3190 
Q 3341 2797 3341 1997 
z
" transform="scale(0.015625)"/>
       <path id="DejaVuSans-6c" d="M 603 4863 
L 1178 4863 
L 1178 0 
L 603 0 
L 603 4863 
z
" transform="scale(0.015625)"/>
       <path id="DejaVuSans-66" d="M 2375 4863 
L 2375 4384 
L 1825 4384 
Q 1516 4384 1395 4259 
Q 1275 4134 1275 3809 
L 1275 3500 
L 2222 3500 
L 2222 3053 
L 1275 3053 
L 1275 0 
L 697 0 
L 697 3053 
L 147 3053 
L 147 3500 
L 697 3500 
L 697 3744 
Q 697 4328 969 4595 
Q 1241 4863 1831 4863 
L 2375 4863 
z
" transform="scale(0.015625)"/>
      </defs>
      <use xlink:href="#DejaVuSans-61"/>
      <use xlink:href="#DejaVuSans-6c" transform="translate(61.279297 0)"/>
      <use xlink:href="#DejaVuSans-66" transform="translate(89.0625 0)"/>
      <use xlink:href="#DejaVuSans-61" transform="translate(124.267578 0)"/>
     </g>
    </g>
    <g id="line2d_28">
     <path d="M 66.6 105.160548 
L 76.6 105.160548 
L 86.6 105.160548 
" style="fill: none; stroke: #ff7f0e; stroke-width: 1.5; stroke-linecap: square"/>
    </g>
    <g id="text_14">
     <!-- beta -->
     <g transform="translate(94.6 108.660548) scale(0.1 -0.1)">
      <defs>
       <path id="DejaVuSans-62" d="M 3116 1747 
Q 3116 2381 2855 2742 
Q 2594 3103 2138 3103 
Q 1681 3103 1420 2742 
Q 1159 2381 1159 1747 
Q 1159 1113 1420 752 
Q 1681 391 2138 391 
Q 2594 391 2855 752 
Q 3116 1113 3116 1747 
z
M 1159 2969 
Q 1341 3281 1617 3432 
Q 1894 3584 2278 3584 
Q 2916 3584 3314 3078 
Q 3713 2572 3713 1747 
Q 3713 922 3314 415 
Q 2916 -91 2278 -91 
Q 1894 -91 1617 61 
Q 1341 213 1159 525 
L 1159 0 
L 581 0 
L 581 4863 
L 1159 4863 
L 1159 2969 
z
" transform="scale(0.015625)"/>
       <path id="DejaVuSans-65" d="M 3597 1894 
L 3597 1613 
L 953 1613 
Q 991 1019 1311 708 
Q 1631 397 2203 397 
Q 2534 397 2845 478 
Q 3156 559 3463 722 
L 3463 178 
Q 3153 47 2828 -22 
Q 2503 -91 2169 -91 
Q 1331 -91 842 396 
Q 353 884 353 1716 
Q 353 2575 817 3079 
Q 1281 3584 2069 3584 
Q 2775 3584 3186 3129 
Q 3597 2675 3597 1894 
z
M 3022 2063 
Q 3016 2534 2758 2815 
Q 2500 3097 2075 3097 
Q 1594 3097 1305 2825 
Q 1016 2553 972 2059 
L 3022 2063 
z
" transform="scale(0.015625)"/>
       <path id="DejaVuSans-74" d="M 1172 4494 
L 1172 3500 
L 2356 3500 
L 2356 3053 
L 1172 3053 
L 1172 1153 
Q 1172 725 1289 603 
Q 1406 481 1766 481 
L 2356 481 
L 2356 0 
L 1766 0 
Q 1100 0 847 248 
Q 594 497 594 1153 
L 594 3053 
L 172 3053 
L 172 3500 
L 594 3500 
L 594 4494 
L 1172 4494 
z
" transform="scale(0.015625)"/>
      </defs>
      <use xlink:href="#DejaVuSans-62"/>
      <use xlink:href="#DejaVuSans-65" transform="translate(63.476562 0)"/>
      <use xlink:href="#DejaVuSans-74" transform="translate(125 0)"/>
      <use xlink:href="#DejaVuSans-61" transform="translate(164.208984 0)"/>
     </g>
    </g>
   </g>
  </g>
  <g id="axes_2">
   <g id="patch_8">
    <path d="M 57.6 213.662118 
L 414.72 213.662118 
L 414.72 135.393882 
L 57.6 135.393882 
L 57.6 213.662118 
z
" style="fill: none"/>
   </g>
   <g id="matplotlib.axis_3">
    <g id="xtick_10">
     <g id="line2d_29">
      <path d="M 73.832727 213.662118 
L 73.832727 135.393882 
" clip-path="url(#p3db85ccf80)" style="fill: none; stroke: #b0b0b0; stroke-width: 0.8; stroke-linecap: square"/>
     </g>
     <g id="line2d_30">
      <g>
       <use xlink:href="#m61b9ecc10c" x="73.832727" y="213.662118" style="stroke: #000000; stroke-width: 0.8"/>
      </g>
     </g>
     <g id="text_15">
      <!-- 0.0 -->
      <g transform="translate(65.881165 228.260555) scale(0.1 -0.1)">
       <use xlink:href="#DejaVuSans-30"/>
       <use xlink:href="#DejaVuSans-2e" transform="translate(63.623047 0)"/>
       <use xlink:href="#DejaVuSans-30" transform="translate(95.410156 0)"/>
      </g>
     </g>
    </g>
    <g id="xtick_11">
     <g id="line2d_31">
      <path d="M 114.516254 213.662118 
L 114.516254 135.393882 
" clip-path="url(#p3db85ccf80)" style="fill: none; stroke: #b0b0b0; stroke-width: 0.8; stroke-linecap: square"/>
     </g>
     <g id="line2d_32">
      <g>
       <use xlink:href="#m61b9ecc10c" x="114.516254" y="213.662118" style="stroke: #000000; stroke-width: 0.8"/>
      </g>
     </g>
     <g id="text_16">
      <!-- 0.5 -->
      <g transform="translate(106.564692 228.260555) scale(0.1 -0.1)">
       <use xlink:href="#DejaVuSans-30"/>
       <use xlink:href="#DejaVuSans-2e" transform="translate(63.623047 0)"/>
       <use xlink:href="#DejaVuSans-35" transform="translate(95.410156 0)"/>
      </g>
     </g>
    </g>
    <g id="xtick_12">
     <g id="line2d_33">
      <path d="M 155.199781 213.662118 
L 155.199781 135.393882 
" clip-path="url(#p3db85ccf80)" style="fill: none; stroke: #b0b0b0; stroke-width: 0.8; stroke-linecap: square"/>
     </g>
     <g id="line2d_34">
      <g>
       <use xlink:href="#m61b9ecc10c" x="155.199781" y="213.662118" style="stroke: #000000; stroke-width: 0.8"/>
      </g>
     </g>
     <g id="text_17">
      <!-- 1.0 -->
      <g transform="translate(147.248219 228.260555) scale(0.1 -0.1)">
       <use xlink:href="#DejaVuSans-31"/>
       <use xlink:href="#DejaVuSans-2e" transform="translate(63.623047 0)"/>
       <use xlink:href="#DejaVuSans-30" transform="translate(95.410156 0)"/>
      </g>
     </g>
    </g>
    <g id="xtick_13">
     <g id="line2d_35">
      <path d="M 195.883308 213.662118 
L 195.883308 135.393882 
" clip-path="url(#p3db85ccf80)" style="fill: none; stroke: #b0b0b0; stroke-width: 0.8; stroke-linecap: square"/>
     </g>
     <g id="line2d_36">
      <g>
       <use xlink:href="#m61b9ecc10c" x="195.883308" y="213.662118" style="stroke: #000000; stroke-width: 0.8"/>
      </g>
     </g>
     <g id="text_18">
      <!-- 1.5 -->
      <g transform="translate(187.931746 228.260555) scale(0.1 -0.1)">
       <use xlink:href="#DejaVuSans-31"/>
       <use xlink:href="#DejaVuSans-2e" transform="translate(63.623047 0)"/>
       <use xlink:href="#DejaVuSans-35" transform="translate(95.410156 0)"/>
      </g>
     </g>
    </g>
    <g id="xtick_14">
     <g id="line2d_37">
      <path d="M 236.566835 213.662118 
L 236.566835 135.393882 
" clip-path="url(#p3db85ccf80)" style="fill: none; stroke: #b0b0b0; stroke-width: 0.8; stroke-linecap: square"/>
     </g>
     <g id="line2d_38">
      <g>
       <use xlink:href="#m61b9ecc10c" x="236.566835" y="213.662118" style="stroke: #000000; stroke-width: 0.8"/>
      </g>
     </g>
     <g id="text_19">
      <!-- 2.0 -->
      <g transform="translate(228.615273 228.260555) scale(0.1 -0.1)">
       <use xlink:href="#DejaVuSans-32"/>
       <use xlink:href="#DejaVuSans-2e" transform="translate(63.623047 0)"/>
       <use xlink:href="#DejaVuSans-30" transform="translate(95.410156 0)"/>
      </g>
     </g>
    </g>
    <g id="xtick_15">
     <g id="line2d_39">
      <path d="M 277.250362 213.662118 
L 277.250362 135.393882 
" clip-path="url(#p3db85ccf80)" style="fill: none; stroke: #b0b0b0; stroke-width: 0.8; stroke-linecap: square"/>
     </g>
     <g id="line2d_40">
      <g>
       <use xlink:href="#m61b9ecc10c" x="277.250362" y="213.662118" style="stroke: #000000; stroke-width: 0.8"/>
      </g>
     </g>
     <g id="text_20">
      <!-- 2.5 -->
      <g transform="translate(269.2988 228.260555) scale(0.1 -0.1)">
       <use xlink:href="#DejaVuSans-32"/>
       <use xlink:href="#DejaVuSans-2e" transform="translate(63.623047 0)"/>
       <use xlink:href="#DejaVuSans-35" transform="translate(95.410156 0)"/>
      </g>
     </g>
    </g>
    <g id="xtick_16">
     <g id="line2d_41">
      <path d="M 317.933889 213.662118 
L 317.933889 135.393882 
" clip-path="url(#p3db85ccf80)" style="fill: none; stroke: #b0b0b0; stroke-width: 0.8; stroke-linecap: square"/>
     </g>
     <g id="line2d_42">
      <g>
       <use xlink:href="#m61b9ecc10c" x="317.933889" y="213.662118" style="stroke: #000000; stroke-width: 0.8"/>
      </g>
     </g>
     <g id="text_21">
      <!-- 3.0 -->
      <g transform="translate(309.982327 228.260555) scale(0.1 -0.1)">
       <use xlink:href="#DejaVuSans-33"/>
       <use xlink:href="#DejaVuSans-2e" transform="translate(63.623047 0)"/>
       <use xlink:href="#DejaVuSans-30" transform="translate(95.410156 0)"/>
      </g>
     </g>
    </g>
    <g id="xtick_17">
     <g id="line2d_43">
      <path d="M 358.617416 213.662118 
L 358.617416 135.393882 
" clip-path="url(#p3db85ccf80)" style="fill: none; stroke: #b0b0b0; stroke-width: 0.8; stroke-linecap: square"/>
     </g>
     <g id="line2d_44">
      <g>
       <use xlink:href="#m61b9ecc10c" x="358.617416" y="213.662118" style="stroke: #000000; stroke-width: 0.8"/>
      </g>
     </g>
     <g id="text_22">
      <!-- 3.5 -->
      <g transform="translate(350.665854 228.260555) scale(0.1 -0.1)">
       <use xlink:href="#DejaVuSans-33"/>
       <use xlink:href="#DejaVuSans-2e" transform="translate(63.623047 0)"/>
       <use xlink:href="#DejaVuSans-35" transform="translate(95.410156 0)"/>
      </g>
     </g>
    </g>
    <g id="xtick_18">
     <g id="line2d_45">
      <path d="M 399.300943 213.662118 
L 399.300943 135.393882 
" clip-path="url(#p3db85ccf80)" style="fill: none; stroke: #b0b0b0; stroke-width: 0.8; stroke-linecap: square"/>
     </g>
     <g id="line2d_46">
      <g>
       <use xlink:href="#m61b9ecc10c" x="399.300943" y="213.662118" style="stroke: #000000; stroke-width: 0.8"/>
      </g>
     </g>
     <g id="text_23">
      <!-- 4.0 -->
      <g transform="translate(391.349381 228.260555) scale(0.1 -0.1)">
       <use xlink:href="#DejaVuSans-34"/>
       <use xlink:href="#DejaVuSans-2e" transform="translate(63.623047 0)"/>
       <use xlink:href="#DejaVuSans-30" transform="translate(95.410156 0)"/>
      </g>
     </g>
    </g>
   </g>
   <g id="matplotlib.axis_4">
    <g id="ytick_4">
     <g id="line2d_47">
      <path d="M 57.6 199.893608 
L 414.72 199.893608 
" clip-path="url(#p3db85ccf80)" style="fill: none; stroke: #b0b0b0; stroke-width: 0.8; stroke-linecap: square"/>
     </g>
     <g id="line2d_48">
      <g>
       <use xlink:href="#m8188306392" x="57.6" y="199.893608" style="stroke: #000000; stroke-width: 0.8"/>
      </g>
     </g>
     <g id="text_24">
      <!-- −2.5 -->
      <g transform="translate(26.317187 203.692827) scale(0.1 -0.1)">
       <use xlink:href="#DejaVuSans-2212"/>
       <use xlink:href="#DejaVuSans-32" transform="translate(83.789062 0)"/>
       <use xlink:href="#DejaVuSans-2e" transform="translate(147.412109 0)"/>
       <use xlink:href="#DejaVuSans-35" transform="translate(179.199219 0)"/>
      </g>
     </g>
    </g>
    <g id="ytick_5">
     <g id="line2d_49">
      <path d="M 57.6 173.408828 
L 414.72 173.408828 
" clip-path="url(#p3db85ccf80)" style="fill: none; stroke: #b0b0b0; stroke-width: 0.8; stroke-linecap: square"/>
     </g>
     <g id="line2d_50">
      <g>
       <use xlink:href="#m8188306392" x="57.6" y="173.408828" style="stroke: #000000; stroke-width: 0.8"/>
      </g>
     </g>
     <g id="text_25">
      <!-- 0.0 -->
      <g transform="translate(34.696875 177.208046) scale(0.1 -0.1)">
       <use xlink:href="#DejaVuSans-30"/>
       <use xlink:href="#DejaVuSans-2e" transform="translate(63.623047 0)"/>
       <use xlink:href="#DejaVuSans-30" transform="translate(95.410156 0)"/>
      </g>
     </g>
    </g>
    <g id="ytick_6">
     <g id="line2d_51">
      <path d="M 57.6 146.924047 
L 414.72 146.924047 
" clip-path="url(#p3db85ccf80)" style="fill: none; stroke: #b0b0b0; stroke-width: 0.8; stroke-linecap: square"/>
     </g>
     <g id="line2d_52">
      <g>
       <use xlink:href="#m8188306392" x="57.6" y="146.924047" style="stroke: #000000; stroke-width: 0.8"/>
      </g>
     </g>
     <g id="text_26">
      <!-- 2.5 -->
      <g transform="translate(34.696875 150.723266) scale(0.1 -0.1)">
       <use xlink:href="#DejaVuSans-32"/>
       <use xlink:href="#DejaVuSans-2e" transform="translate(63.623047 0)"/>
       <use xlink:href="#DejaVuSans-35" transform="translate(95.410156 0)"/>
      </g>
     </g>
    </g>
    <g id="text_27">
     <!-- filtered error -->
     <g transform="translate(20.2375 205.988156) rotate(-90) scale(0.1 -0.1)">
      <defs>
       <path id="DejaVuSans-69" d="M 603 3500 
L 1178 3500 
L 1178 0 
L 603 0 
L 603 3500 
z
M 603 4863 
L 1178 4863 
L 1178 4134 
L 603 4134 
L 603 4863 
z
" transform="scale(0.015625)"/>
       <path id="DejaVuSans-72" d="M 2631 2963 
Q 2534 3019 2420 3045 
Q 2306 3072 2169 3072 
Q 1681 3072 1420 2755 
Q 1159 2438 1159 1844 
L 1159 0 
L 581 0 
L 581 3500 
L 1159 3500 
L 1159 2956 
Q 1341 3275 1631 3429 
Q 1922 3584 2338 3584 
Q 2397 3584 2469 3576 
Q 2541 3569 2628 3553 
L 2631 2963 
z
" transform="scale(0.015625)"/>
       <path id="DejaVuSans-64" d="M 2906 2969 
L 2906 4863 
L 3481 4863 
L 3481 0 
L 2906 0 
L 2906 525 
Q 2725 213 2448 61 
Q 2172 -91 1784 -91 
Q 1150 -91 751 415 
Q 353 922 353 1747 
Q 353 2572 751 3078 
Q 1150 3584 1784 3584 
Q 2172 3584 2448 3432 
Q 2725 3281 2906 2969 
z
M 947 1747 
Q 947 1113 1208 752 
Q 1469 391 1925 391 
Q 2381 391 2643 752 
Q 2906 1113 2906 1747 
Q 2906 2381 2643 2742 
Q 2381 3103 1925 3103 
Q 1469 3103 1208 2742 
Q 947 2381 947 1747 
z
" transform="scale(0.015625)"/>
       <path id="DejaVuSans-20" transform="scale(0.015625)"/>
       <path id="DejaVuSans-6f" d="M 1959 3097 
Q 1497 3097 1228 2736 
Q 959 2375 959 1747 
Q 959 1119 1226 758 
Q 1494 397 1959 397 
Q 2419 397 2687 759 
Q 2956 1122 2956 1747 
Q 2956 2369 2687 2733 
Q 2419 3097 1959 3097 
z
M 1959 3584 
Q 2709 3584 3137 3096 
Q 3566 2609 3566 1747 
Q 3566 888 3137 398 
Q 2709 -91 1959 -91 
Q 1206 -91 779 398 
Q 353 888 353 1747 
Q 353 2609 779 3096 
Q 1206 3584 1959 3584 
z
" transform="scale(0.015625)"/>
      </defs>
      <use xlink:href="#DejaVuSans-66"/>
      <use xlink:href="#DejaVuSans-69" transform="translate(35.205078 0)"/>
      <use xlink:href="#DejaVuSans-6c" transform="translate(62.988281 0)"/>
      <use xlink:href="#DejaVuSans-74" transform="translate(90.771484 0)"/>
      <use xlink:href="#DejaVuSans-65" transform="translate(129.980469 0)"/>
      <use xlink:href="#DejaVuSans-72" transform="translate(191.503906 0)"/>
      <use xlink:href="#DejaVuSans-65" transform="translate(230.367188 0)"/>
      <use xlink:href="#DejaVuSans-64" transform="translate(291.890625 0)"/>
      <use xlink:href="#DejaVuSans-20" transform="translate(355.367188 0)"/>
      <use xlink:href="#DejaVuSans-65" transform="translate(387.154297 0)"/>
      <use xlink:href="#DejaVuSans-72" transform="translate(448.677734 0)"/>
      <use xlink:href="#DejaVuSans-72" transform="translate(488.041016 0)"/>
      <use xlink:href="#DejaVuSans-6f" transform="translate(526.904297 0)"/>
      <use xlink:href="#DejaVuSans-72" transform="translate(588.085938 0)"/>
     </g>
    </g>
   </g>
   <g id="line2d_53">
    <path d="M 73.832727 171.757884 
L 74.646398 169.620588 
L 75.460068 170.167448 
L 76.273739 173.381203 
L 81.155762 203.512801 
L 81.969433 206.610067 
L 82.783103 208.510091 
L 83.596774 207.735007 
L 84.410444 204.45321 
L 85.224115 199.697921 
L 86.037785 193.569442 
L 86.851456 185.144434 
L 87.665126 173.975336 
L 88.478797 164.543982 
L 90.106138 153.639629 
L 90.919809 150.608621 
L 91.733479 149.528318 
L 93.36082 146.190185 
L 94.174491 145.2301 
L 94.988161 143.683136 
L 95.801832 141.638816 
L 96.615502 141.455146 
L 97.429173 141.665313 
L 98.242843 144.685938 
L 99.870185 157.490001 
L 103.124867 193.040106 
L 103.938537 198.420863 
L 104.752208 200.614218 
L 106.379549 204.437721 
L 108.00689 206.137079 
L 108.82056 208.026104 
L 109.634231 208.222262 
L 110.447902 206.471205 
L 111.261572 204.360943 
L 112.075243 200.636472 
L 112.888913 194.590092 
L 113.702584 185.545533 
L 115.329925 165.568139 
L 116.143595 157.85703 
L 116.957266 152.026521 
L 117.770936 147.664606 
L 118.584607 144.704054 
L 119.398278 143.39006 
L 121.025619 142.87807 
L 121.839289 141.412355 
L 122.65296 139.715516 
L 123.46663 138.992637 
L 124.280301 140.353611 
L 125.093971 145.010698 
L 126.721312 157.519857 
L 127.534983 165.817113 
L 129.162324 185.283919 
L 129.975995 192.050794 
L 130.789665 197.355938 
L 131.603336 200.310963 
L 132.417006 201.128146 
L 134.044347 204.49695 
L 134.858018 205.48486 
L 135.671688 207.604835 
L 136.485359 209.347978 
L 137.299029 210.104471 
L 138.1127 209.10299 
L 138.92637 205.347025 
L 139.740041 199.824957 
L 140.553712 191.923025 
L 142.994723 163.091603 
L 143.808394 155.510149 
L 144.622064 149.78541 
L 145.435735 146.930235 
L 146.249405 146.612024 
L 147.876746 145.063718 
L 148.690417 143.087896 
L 149.504087 139.983957 
L 150.317758 138.951529 
L 151.131429 139.088875 
L 151.945099 141.749969 
L 153.57244 151.313312 
L 154.386111 157.720984 
L 157.640793 192.308262 
L 158.454463 197.428377 
L 159.268134 200.348064 
L 160.895475 204.308878 
L 162.522816 206.943278 
L 163.336487 207.367229 
L 164.150157 206.737598 
L 164.963828 207.172096 
L 165.777498 206.004608 
L 166.591169 201.949792 
L 167.404839 195.56895 
L 169.845851 168.89041 
L 171.473192 156.357227 
L 172.286863 152.103606 
L 173.914204 147.857055 
L 174.727874 146.958792 
L 176.355215 142.822564 
L 177.168886 142.012424 
L 178.796227 139.454453 
L 179.609897 139.384687 
L 180.423568 141.471604 
L 181.237239 147.030549 
L 182.050909 154.409725 
L 182.86458 164.177632 
L 183.67825 175.512037 
L 184.491921 184.874922 
L 185.305591 191.932465 
L 186.119262 195.485081 
L 186.932932 197.859974 
L 187.746603 200.717346 
L 188.560273 201.743073 
L 189.373944 201.654914 
L 190.187614 201.754459 
L 191.001285 202.49174 
L 191.814956 203.76883 
L 192.628626 204.051835 
L 193.442297 203.282538 
L 194.255967 200.009175 
L 195.069638 194.779771 
L 195.883308 188.685416 
L 198.32432 164.254615 
L 199.13799 159.364703 
L 199.951661 155.963422 
L 204.020014 145.389792 
L 204.833684 145.143345 
L 205.647355 144.093035 
L 206.461025 142.377498 
L 207.274696 144.119159 
L 208.088366 146.885999 
L 208.902037 150.553215 
L 210.529378 161.046657 
L 211.343049 166.345236 
L 212.97039 181.637501 
L 214.597731 191.670747 
L 215.411401 194.547033 
L 216.225072 195.075362 
L 217.038742 194.78677 
L 217.852413 194.666908 
L 218.666083 195.558044 
L 219.479754 195.943819 
L 221.920766 195.10647 
L 222.734436 193.918429 
L 223.548107 191.263022 
L 224.361777 188.004328 
L 225.175448 183.105785 
L 225.989118 176.901645 
L 227.616459 168.394799 
L 228.43013 164.087563 
L 229.2438 160.390506 
L 230.057471 157.953179 
L 230.871141 156.514 
L 231.684812 155.69879 
L 232.498483 156.198787 
L 233.312153 155.876069 
L 234.125824 154.538722 
L 234.939494 155.067596 
L 236.566835 158.915607 
L 238.194176 160.580564 
L 239.007847 161.631497 
L 239.821517 164.608034 
L 243.0762 182.168347 
L 243.88987 184.08861 
L 244.703541 184.799432 
L 245.517211 184.425701 
L 246.330882 184.386863 
L 247.144552 184.087816 
L 247.958223 182.921092 
L 248.771893 183.919013 
L 249.585564 183.814504 
L 250.399234 183.407843 
L 251.212905 183.415804 
L 252.840246 180.80417 
L 255.281258 173.223973 
L 256.094928 171.979581 
L 257.722269 168.687386 
L 258.53594 168.077434 
L 259.34961 167.72273 
L 260.163281 167.869214 
L 261.790622 169.023238 
L 262.604293 168.119657 
L 263.417963 166.249577 
L 264.231634 166.505024 
L 265.858975 168.995891 
L 266.672645 170.420346 
L 267.486316 170.290678 
L 268.299986 170.885692 
L 269.113657 173.448337 
L 269.927327 174.849947 
L 271.554668 177.026643 
L 272.368339 177.025899 
L 273.18201 176.831036 
L 273.99568 176.449377 
L 274.809351 176.264781 
L 275.623021 176.279602 
L 276.436692 175.687346 
L 277.250362 175.85425 
L 278.064033 176.737642 
L 278.877703 176.322025 
L 279.691374 176.09802 
L 280.505044 176.489836 
L 281.318715 176.201058 
L 282.132386 175.077943 
L 283.759727 173.732809 
L 284.573397 173.293849 
L 285.387068 171.827896 
L 286.200738 170.052061 
L 287.014409 170.57253 
L 287.828079 171.368962 
L 288.64175 171.666189 
L 289.45542 171.698207 
L 290.269091 171.430721 
L 291.082761 171.826285 
L 291.896432 172.386523 
L 293.523773 171.242628 
L 294.337444 171.643547 
L 295.151114 171.286792 
L 295.964785 171.458634 
L 296.778455 173.305863 
L 297.592126 173.771032 
L 298.405796 172.384953 
L 300.846808 172.023496 
L 301.660478 173.242163 
L 303.28782 173.781574 
L 304.10149 174.920295 
L 304.915161 175.206954 
L 305.728831 174.267481 
L 307.356172 172.779132 
L 308.169843 171.523327 
L 308.983513 171.335328 
L 309.797184 172.528167 
L 310.610854 173.128931 
L 312.238195 171.359152 
L 313.051866 172.08525 
L 313.865537 173.066245 
L 315.492878 173.835558 
L 316.306548 174.31393 
L 317.120219 173.785697 
L 317.933889 172.694794 
L 318.74756 173.015074 
L 319.56123 173.19135 
L 320.374901 172.420843 
L 321.188571 171.948773 
L 322.815913 172.716842 
L 323.629583 173.303824 
L 325.256924 175.407362 
L 326.070595 175.655871 
L 326.884265 174.740409 
L 327.697936 174.665625 
L 328.511606 174.36827 
L 329.325277 173.81195 
L 330.138947 174.083874 
L 330.952618 173.634859 
L 331.766288 172.569141 
L 332.579959 172.876969 
L 333.39363 173.555604 
L 334.2073 173.30431 
L 335.020971 172.881655 
L 336.648312 173.002372 
L 337.461982 174.235011 
L 338.275653 174.420394 
L 339.089323 173.024092 
L 340.716664 172.604244 
L 341.530335 172.190172 
L 342.344005 172.494622 
L 343.157676 173.173056 
L 343.971347 173.358551 
L 344.785017 173.927768 
L 345.598688 173.663878 
L 346.412358 172.169225 
L 347.226029 170.9159 
L 348.039699 171.337328 
L 348.85337 172.354184 
L 349.66704 172.378729 
L 350.480711 172.112239 
L 351.294381 172.242155 
L 352.921722 174.198378 
L 353.735393 173.734643 
L 354.549064 172.752503 
L 355.362734 173.635757 
L 356.176405 174.882901 
L 356.990075 174.598161 
L 357.803746 173.040895 
L 358.617416 172.852779 
L 359.431087 173.295354 
L 360.244757 172.808456 
L 362.685769 173.353673 
L 363.49944 174.254904 
L 364.31311 173.60135 
L 365.940451 172.870313 
L 366.754122 171.457481 
L 367.567792 172.459248 
L 368.381463 173.919445 
L 370.008804 174.135394 
L 370.822474 173.867301 
L 371.636145 173.30842 
L 372.449815 173.352736 
L 373.263486 173.829155 
L 374.077157 174.525694 
L 374.890827 174.824597 
L 375.704498 173.761407 
L 376.518168 173.003719 
L 377.331839 173.654779 
L 378.145509 173.861174 
L 378.95918 173.929421 
L 379.77285 172.915468 
L 380.586521 171.114541 
L 381.400191 171.824145 
L 382.213862 173.093973 
L 383.841203 173.169261 
L 384.654874 174.682612 
L 385.468544 175.171806 
L 386.282215 175.10276 
L 387.095885 176.090124 
L 388.723226 173.775826 
L 389.536897 173.197687 
L 390.350567 172.312812 
L 391.977908 173.192518 
L 392.791579 172.068937 
L 393.605249 171.883979 
L 394.41892 173.529629 
L 395.232591 173.274071 
L 396.046261 171.710464 
L 396.859932 171.975453 
L 397.673602 172.414936 
L 398.487273 172.574983 
L 398.487273 172.574983 
" clip-path="url(#p3db85ccf80)" style="fill: none; stroke: #1f77b4; stroke-width: 1.5; stroke-linecap: square"/>
   </g>
   <g id="patch_9">
    <path d="M 57.6 213.662118 
L 57.6 135.393882 
" style="fill: none; stroke: #000000; stroke-width: 0.8; stroke-linejoin: miter; stroke-linecap: square"/>
   </g>
   <g id="patch_10">
    <path d="M 414.72 213.662118 
L 414.72 135.393882 
" style="fill: none; stroke: #000000; stroke-width: 0.8; stroke-linejoin: miter; stroke-linecap: square"/>
   </g>
   <g id="patch_11">
    <path d="M 57.6 213.662118 
L 414.72 213.662118 
" style="fill: none; stroke: #000000; stroke-width: 0.8; stroke-linejoin: miter; stroke-linecap: square"/>
   </g>
   <g id="patch_12">
    <path d="M 57.6 135.393882 
L 414.72 135.393882 
" style="fill: none; stroke: #000000; stroke-width: 0.8; stroke-linejoin: miter; stroke-linecap: square"/>
   </g>
  </g>
  <g id="axes_3">
   <g id="patch_13">
    <path d="M 57.6 307.584 
L 414.72 307.584 
L 414.72 229.315765 
L 57.6 229.315765 
L 57.6 307.584 
z
" style="fill: none"/>
   </g>
   <g id="matplotlib.axis_5">
    <g id="xtick_19">
     <g id="line2d_54">
      <path d="M 73.832727 307.584 
L 73.832727 229.315765 
" clip-path="url(#p471bacb980)" style="fill: none; stroke: #b0b0b0; stroke-width: 0.8; stroke-linecap: square"/>
     </g>
     <g id="line2d_55">
      <g>
       <use xlink:href="#m61b9ecc10c" x="73.832727" y="307.584" style="stroke: #000000; stroke-width: 0.8"/>
      </g>
     </g>
     <g id="text_28">
      <!-- 0.0 -->
      <g transform="translate(65.881165 322.182437) scale(0.1 -0.1)">
       <use xlink:href="#DejaVuSans-30"/>
       <use xlink:href="#DejaVuSans-2e" transform="translate(63.623047 0)"/>
       <use xlink:href="#DejaVuSans-30" transform="translate(95.410156 0)"/>
      </g>
     </g>
    </g>
    <g id="xtick_20">
     <g id="line2d_56">
      <path d="M 114.516254 307.584 
L 114.516254 229.315765 
" clip-path="url(#p471bacb980)" style="fill: none; stroke: #b0b0b0; stroke-width: 0.8; stroke-linecap: square"/>
     </g>
     <g id="line2d_57">
      <g>
       <use xlink:href="#m61b9ecc10c" x="114.516254" y="307.584" style="stroke: #000000; stroke-width: 0.8"/>
      </g>
     </g>
     <g id="text_29">
      <!-- 0.5 -->
      <g transform="translate(106.564692 322.182437) scale(0.1 -0.1)">
       <use xlink:href="#DejaVuSans-30"/>
       <use xlink:href="#DejaVuSans-2e" transform="translate(63.623047 0)"/>
       <use xlink:href="#DejaVuSans-35" transform="translate(95.410156 0)"/>
      </g>
     </g>
    </g>
    <g id="xtick_21">
     <g id="line2d_58">
      <path d="M 155.199781 307.584 
L 155.199781 229.315765 
" clip-path="url(#p471bacb980)" style="fill: none; stroke: #b0b0b0; stroke-width: 0.8; stroke-linecap: square"/>
     </g>
     <g id="line2d_59">
      <g>
       <use xlink:href="#m61b9ecc10c" x="155.199781" y="307.584" style="stroke: #000000; stroke-width: 0.8"/>
      </g>
     </g>
     <g id="text_30">
      <!-- 1.0 -->
      <g transform="translate(147.248219 322.182437) scale(0.1 -0.1)">
       <use xlink:href="#DejaVuSans-31"/>
       <use xlink:href="#DejaVuSans-2e" transform="translate(63.623047 0)"/>
       <use xlink:href="#DejaVuSans-30" transform="translate(95.410156 0)"/>
      </g>
     </g>
    </g>
    <g id="xtick_22">
     <g id="line2d_60">
      <path d="M 195.883308 307.584 
L 195.883308 229.315765 
" clip-path="url(#p471bacb980)" style="fill: none; stroke: #b0b0b0; stroke-width: 0.8; stroke-linecap: square"/>
     </g>
     <g id="line2d_61">
      <g>
       <use xlink:href="#m61b9ecc10c" x="195.883308" y="307.584" style="stroke: #000000; stroke-width: 0.8"/>
      </g>
     </g>
     <g id="text_31">
      <!-- 1.5 -->
      <g transform="translate(187.931746 322.182437) scale(0.1 -0.1)">
       <use xlink:href="#DejaVuSans-31"/>
       <use xlink:href="#DejaVuSans-2e" transform="translate(63.623047 0)"/>
       <use xlink:href="#DejaVuSans-35" transform="translate(95.410156 0)"/>
      </g>
     </g>
    </g>
    <g id="xtick_23">
     <g id="line2d_62">
      <path d="M 236.566835 307.584 
L 236.566835 229.315765 
" clip-path="url(#p471bacb980)" style="fill: none; stroke: #b0b0b0; stroke-width: 0.8; stroke-linecap: square"/>
     </g>
     <g id="line2d_63">
      <g>
       <use xlink:href="#m61b9ecc10c" x="236.566835" y="307.584" style="stroke: #000000; stroke-width: 0.8"/>
      </g>
     </g>
     <g id="text_32">
      <!-- 2.0 -->
      <g transform="translate(228.615273 322.182437) scale(0.1 -0.1)">
       <use xlink:href="#DejaVuSans-32"/>
       <use xlink:href="#DejaVuSans-2e" transform="translate(63.623047 0)"/>
       <use xlink:href="#DejaVuSans-30" transform="translate(95.410156 0)"/>
      </g>
     </g>
    </g>
    <g id="xtick_24">
     <g id="line2d_64">
      <path d="M 277.250362 307.584 
L 277.250362 229.315765 
" clip-path="url(#p471bacb980)" style="fill: none; stroke: #b0b0b0; stroke-width: 0.8; stroke-linecap: square"/>
     </g>
     <g id="line2d_65">
      <g>
       <use xlink:href="#m61b9ecc10c" x="277.250362" y="307.584" style="stroke: #000000; stroke-width: 0.8"/>
      </g>
     </g>
     <g id="text_33">
      <!-- 2.5 -->
      <g transform="translate(269.2988 322.182437) scale(0.1 -0.1)">
       <use xlink:href="#DejaVuSans-32"/>
       <use xlink:href="#DejaVuSans-2e" transform="translate(63.623047 0)"/>
       <use xlink:href="#DejaVuSans-35" transform="translate(95.410156 0)"/>
      </g>
     </g>
    </g>
    <g id="xtick_25">
     <g id="line2d_66">
      <path d="M 317.933889 307.584 
L 317.933889 229.315765 
" clip-path="url(#p471bacb980)" style="fill: none; stroke: #b0b0b0; stroke-width: 0.8; stroke-linecap: square"/>
     </g>
     <g id="line2d_67">
      <g>
       <use xlink:href="#m61b9ecc10c" x="317.933889" y="307.584" style="stroke: #000000; stroke-width: 0.8"/>
      </g>
     </g>
     <g id="text_34">
      <!-- 3.0 -->
      <g transform="translate(309.982327 322.182437) scale(0.1 -0.1)">
       <use xlink:href="#DejaVuSans-33"/>
       <use xlink:href="#DejaVuSans-2e" transform="translate(63.623047 0)"/>
       <use xlink:href="#DejaVuSans-30" transform="translate(95.410156 0)"/>
      </g>
     </g>
    </g>
    <g id="xtick_26">
     <g id="line2d_68">
      <path d="M 358.617416 307.584 
L 358.617416 229.315765 
" clip-path="url(#p471bacb980)" style="fill: none; stroke: #b0b0b0; stroke-width: 0.8; stroke-linecap: square"/>
     </g>
     <g id="line2d_69">
      <g>
       <use xlink:href="#m61b9ecc10c" x="358.617416" y="307.584" style="stroke: #000000; stroke-width: 0.8"/>
      </g>
     </g>
     <g id="text_35">
      <!-- 3.5 -->
      <g transform="translate(350.665854 322.182437) scale(0.1 -0.1)">
       <use xlink:href="#DejaVuSans-33"/>
       <use xlink:href="#DejaVuSans-2e" transform="translate(63.623047 0)"/>
       <use xlink:href="#DejaVuSans-35" transform="translate(95.410156 0)"/>
      </g>
     </g>
    </g>
    <g id="xtick_27">
     <g id="line2d_70">
      <path d="M 399.300943 307.584 
L 399.300943 229.315765 
" clip-path="url(#p471bacb980)" style="fill: none; stroke: #b0b0b0; stroke-width: 0.8; stroke-linecap: square"/>
     </g>
     <g id="line2d_71">
      <g>
       <use xlink:href="#m61b9ecc10c" x="399.300943" y="307.584" style="stroke: #000000; stroke-width: 0.8"/>
      </g>
     </g>
     <g id="text_36">
      <!-- 4.0 -->
      <g transform="translate(391.349381 322.182437) scale(0.1 -0.1)">
       <use xlink:href="#DejaVuSans-34"/>
       <use xlink:href="#DejaVuSans-2e" transform="translate(63.623047 0)"/>
       <use xlink:href="#DejaVuSans-30" transform="translate(95.410156 0)"/>
      </g>
     </g>
    </g>
   </g>
   <g id="matplotlib.axis_6">
    <g id="ytick_7">
     <g id="line2d_72">
      <path d="M 57.6 306.320599 
L 414.72 306.320599 
" clip-path="url(#p471bacb980)" style="fill: none; stroke: #b0b0b0; stroke-width: 0.8; stroke-linecap: square"/>
     </g>
     <g id="line2d_73">
      <g>
       <use xlink:href="#m8188306392" x="57.6" y="306.320599" style="stroke: #000000; stroke-width: 0.8"/>
      </g>
     </g>
     <g id="text_37">
      <!-- −2.5 -->
      <g transform="translate(26.317187 310.119817) scale(0.1 -0.1)">
       <use xlink:href="#DejaVuSans-2212"/>
       <use xlink:href="#DejaVuSans-32" transform="translate(83.789062 0)"/>
       <use xlink:href="#DejaVuSans-2e" transform="translate(147.412109 0)"/>
       <use xlink:href="#DejaVuSans-35" transform="translate(179.199219 0)"/>
      </g>
     </g>
    </g>
    <g id="ytick_8">
     <g id="line2d_74">
      <path d="M 57.6 275.526795 
L 414.72 275.526795 
" clip-path="url(#p471bacb980)" style="fill: none; stroke: #b0b0b0; stroke-width: 0.8; stroke-linecap: square"/>
     </g>
     <g id="line2d_75">
      <g>
       <use xlink:href="#m8188306392" x="57.6" y="275.526795" style="stroke: #000000; stroke-width: 0.8"/>
      </g>
     </g>
     <g id="text_38">
      <!-- 0.0 -->
      <g transform="translate(34.696875 279.326013) scale(0.1 -0.1)">
       <use xlink:href="#DejaVuSans-30"/>
       <use xlink:href="#DejaVuSans-2e" transform="translate(63.623047 0)"/>
       <use xlink:href="#DejaVuSans-30" transform="translate(95.410156 0)"/>
      </g>
     </g>
    </g>
    <g id="ytick_9">
     <g id="line2d_76">
      <path d="M 57.6 244.732991 
L 414.72 244.732991 
" clip-path="url(#p471bacb980)" style="fill: none; stroke: #b0b0b0; stroke-width: 0.8; stroke-linecap: square"/>
     </g>
     <g id="line2d_77">
      <g>
       <use xlink:href="#m8188306392" x="57.6" y="244.732991" style="stroke: #000000; stroke-width: 0.8"/>
      </g>
     </g>
     <g id="text_39">
      <!-- 2.5 -->
      <g transform="translate(34.696875 248.532209) scale(0.1 -0.1)">
       <use xlink:href="#DejaVuSans-32"/>
       <use xlink:href="#DejaVuSans-2e" transform="translate(63.623047 0)"/>
       <use xlink:href="#DejaVuSans-35" transform="translate(95.410156 0)"/>
      </g>
     </g>
    </g>
    <g id="text_40">
     <!-- theta -->
     <g transform="translate(20.2375 281.67957) rotate(-90) scale(0.1 -0.1)">
      <defs>
       <path id="DejaVuSans-68" d="M 3513 2113 
L 3513 0 
L 2938 0 
L 2938 2094 
Q 2938 2591 2744 2837 
Q 2550 3084 2163 3084 
Q 1697 3084 1428 2787 
Q 1159 2491 1159 1978 
L 1159 0 
L 581 0 
L 581 4863 
L 1159 4863 
L 1159 2956 
Q 1366 3272 1645 3428 
Q 1925 3584 2291 3584 
Q 2894 3584 3203 3211 
Q 3513 2838 3513 2113 
z
" transform="scale(0.015625)"/>
      </defs>
      <use xlink:href="#DejaVuSans-74"/>
      <use xlink:href="#DejaVuSans-68" transform="translate(39.208984 0)"/>
      <use xlink:href="#DejaVuSans-65" transform="translate(102.587891 0)"/>
      <use xlink:href="#DejaVuSans-74" transform="translate(164.111328 0)"/>
      <use xlink:href="#DejaVuSans-61" transform="translate(203.320312 0)"/>
     </g>
    </g>
   </g>
   <g id="line2d_78">
    <path d="M 73.832727 263.785138 
L 74.646398 265.083106 
L 75.460068 266.134201 
L 76.273739 266.142333 
L 77.087409 264.851248 
L 79.528421 258.541077 
L 80.342092 257.77993 
L 81.155762 258.689141 
L 81.969433 261.608098 
L 82.783103 266.629223 
L 84.410444 280.890059 
L 85.224115 288.398837 
L 86.037785 294.820469 
L 86.851456 298.808721 
L 87.665126 299.00619 
L 88.478797 295.94957 
L 89.292468 291.133985 
L 90.919809 279.261976 
L 91.733479 274.231471 
L 92.54715 270.300772 
L 93.36082 267.769926 
L 94.174491 266.919895 
L 94.988161 267.888583 
L 95.801832 270.868939 
L 96.615502 275.73538 
L 98.242843 289.656925 
L 99.056514 296.40297 
L 99.870185 301.602852 
L 100.683855 304.026353 
L 101.497526 303.056668 
L 102.311196 298.99869 
L 103.124867 292.702279 
L 104.752208 278.868193 
L 105.565878 273.337969 
L 106.379549 269.262476 
L 107.193219 267.054648 
L 108.00689 266.837904 
L 108.82056 268.748362 
L 109.634231 272.752171 
L 110.447902 278.441951 
L 112.888913 299.345937 
L 113.702584 303.404634 
L 114.516254 303.964057 
L 115.329925 301.240722 
L 116.143595 296.029324 
L 118.584607 275.878377 
L 119.398278 270.772549 
L 120.211948 267.442336 
L 121.025619 265.98517 
L 121.839289 266.452284 
L 122.65296 269.001821 
L 123.46663 273.629441 
L 126.721312 298.176765 
L 127.534983 300.755609 
L 128.348653 299.87408 
L 129.162324 295.777983 
L 129.975995 289.646406 
L 131.603336 275.444431 
L 132.417006 269.594753 
L 133.230677 265.0264 
L 134.044347 262.041709 
L 134.858018 260.898326 
L 135.671688 261.72827 
L 136.485359 264.696045 
L 137.299029 269.786946 
L 138.92637 284.366433 
L 139.740041 291.888091 
L 140.553712 297.779114 
L 141.367382 300.663797 
L 142.181053 300.185809 
L 142.994723 296.627312 
L 143.808394 290.740745 
L 145.435735 276.751616 
L 146.249405 271.107148 
L 147.063076 266.836168 
L 147.876746 264.155505 
L 148.690417 263.150638 
L 149.504087 264.08455 
L 150.317758 267.091685 
L 151.131429 272.046745 
L 154.386111 296.465554 
L 155.199781 298.839244 
L 156.013452 298.191181 
L 156.827122 294.541535 
L 157.640793 288.379413 
L 159.268134 274.399467 
L 160.081805 268.458304 
L 160.895475 263.873393 
L 161.709146 260.998972 
L 162.522816 260.018854 
L 163.336487 261.03632 
L 164.150157 263.961974 
L 164.963828 268.817658 
L 167.404839 288.622281 
L 168.21851 292.852603 
L 169.03218 294.229366 
L 169.845851 292.653969 
L 170.659522 288.781965 
L 171.473192 283.192566 
L 173.100533 270.729258 
L 173.914204 265.339312 
L 174.727874 261.204661 
L 175.541545 258.413796 
L 176.355215 257.222471 
L 177.168886 257.84272 
L 177.982556 260.364524 
L 178.796227 264.868294 
L 179.609897 271.175792 
L 181.237239 285.99251 
L 182.050909 291.934333 
L 182.86458 295.040255 
L 183.67825 294.308803 
L 184.491921 290.334158 
L 186.119262 277.378136 
L 187.746603 264.657871 
L 188.560273 259.815441 
L 189.373944 256.587049 
L 190.187614 254.998084 
L 191.001285 255.066897 
L 191.814956 256.883588 
L 192.628626 260.422383 
L 193.442297 265.466419 
L 195.069638 276.936168 
L 195.883308 281.546094 
L 196.696979 283.81932 
L 197.510649 283.019467 
L 198.32432 279.829064 
L 199.13799 275.058813 
L 201.579002 258.531171 
L 202.392673 253.830311 
L 203.206343 250.111031 
L 204.020014 247.672639 
L 204.833684 246.785651 
L 205.647355 247.484169 
L 206.461025 249.895386 
L 207.274696 253.690973 
L 210.529378 272.157304 
L 211.343049 274.502743 
L 212.156719 274.261708 
L 212.97039 271.397611 
L 213.78406 266.856392 
L 216.225072 249.916623 
L 217.038742 245.797964 
L 217.852413 242.814045 
L 218.666083 240.918913 
L 219.479754 240.241826 
L 220.293424 240.803644 
L 221.107095 242.560161 
L 221.920766 245.444466 
L 223.548107 253.327295 
L 224.361777 257.307407 
L 225.175448 260.287786 
L 225.989118 261.449068 
L 226.802789 261.083243 
L 227.616459 259.338491 
L 228.43013 256.194364 
L 231.684812 240.251793 
L 232.498483 237.828088 
L 233.312153 236.324579 
L 234.125824 235.769395 
L 234.939494 236.253891 
L 235.753165 237.585304 
L 236.566835 239.559057 
L 237.380506 242.135425 
L 239.821517 251.163316 
L 240.635188 252.601526 
L 241.448859 252.466098 
L 242.262529 250.679832 
L 243.88987 244.408093 
L 244.703541 241.236897 
L 245.517211 238.634658 
L 246.330882 236.580958 
L 247.144552 235.162462 
L 247.958223 234.448381 
L 248.771893 234.291577 
L 249.585564 234.759155 
L 250.399234 235.794434 
L 251.212905 237.390645 
L 252.840246 241.13507 
L 253.653917 242.56555 
L 254.467587 243.200332 
L 255.281258 243.136994 
L 256.094928 242.638459 
L 256.908599 241.618505 
L 259.34961 237.059322 
L 260.163281 235.904734 
L 260.976951 235.137055 
L 261.790622 234.719096 
L 262.604293 234.544504 
L 263.417963 234.757722 
L 264.231634 235.38327 
L 268.299986 239.602445 
L 269.113657 239.58896 
L 269.927327 239.086377 
L 270.740998 238.213365 
L 272.368339 235.951529 
L 273.18201 235.061754 
L 273.99568 234.41478 
L 274.809351 233.962441 
L 275.623021 233.679133 
L 276.436692 233.597628 
L 277.250362 233.667604 
L 278.064033 233.973627 
L 279.691374 234.971604 
L 281.318715 236.578968 
L 282.132386 237.119661 
L 282.946056 237.44164 
L 283.759727 237.554647 
L 284.573397 237.515221 
L 285.387068 237.001668 
L 286.200738 236.009964 
L 287.014409 235.283648 
L 287.828079 234.859394 
L 289.45542 234.436113 
L 290.269091 234.380352 
L 291.896432 234.540063 
L 292.710103 234.795511 
L 294.337444 235.723417 
L 295.964785 236.99989 
L 296.778455 237.035346 
L 297.592126 236.909056 
L 300.846808 238.323108 
L 303.28782 238.310037 
L 304.10149 238.293354 
L 306.542502 238.512765 
L 307.356172 238.368541 
L 309.797184 236.913214 
L 310.610854 236.816037 
L 311.424525 236.413758 
L 312.238195 235.726745 
L 313.051866 235.314733 
L 314.679207 235.220354 
L 317.933889 235.432987 
L 319.56123 235.492419 
L 320.374901 235.685006 
L 322.002242 236.361879 
L 322.815913 236.582653 
L 323.629583 236.61833 
L 324.443254 236.313034 
L 326.070595 234.883949 
L 327.697936 234.149961 
L 328.511606 233.941679 
L 331.766288 233.775673 
L 335.834641 233.466121 
L 336.648312 233.333321 
L 338.275653 233.970174 
L 339.902994 233.657213 
L 342.344005 232.935475 
L 345.598688 232.893601 
L 346.412358 233.033913 
L 348.85337 234.215772 
L 350.480711 234.962914 
L 351.294381 235.366945 
L 352.108052 235.457387 
L 352.921722 235.191031 
L 353.735393 235.088462 
L 354.549064 235.272974 
L 355.362734 235.219123 
L 356.176405 234.946016 
L 356.990075 234.794684 
L 359.431087 234.810481 
L 362.685769 234.541598 
L 363.49944 234.809306 
L 365.126781 234.833657 
L 365.940451 234.647414 
L 366.754122 234.001071 
L 367.567792 233.711414 
L 370.822474 234.161826 
L 373.263486 234.121708 
L 374.077157 233.953576 
L 374.890827 233.660113 
L 375.704498 233.569639 
L 376.518168 233.689715 
L 378.145509 233.454365 
L 378.95918 233.272786 
L 379.77285 233.441491 
L 380.586521 234.18249 
L 381.400191 234.6457 
L 383.841203 234.808534 
L 385.468544 234.672929 
L 386.282215 234.752472 
L 387.909556 235.316283 
L 388.723226 235.397941 
L 389.536897 235.341187 
L 391.164238 234.787649 
L 391.977908 234.712779 
L 393.605249 233.731396 
L 395.232591 233.731505 
L 396.046261 233.326306 
L 396.859932 233.057892 
L 398.487273 232.873412 
L 398.487273 232.873412 
" clip-path="url(#p471bacb980)" style="fill: none; stroke: #1f77b4; stroke-width: 1.5; stroke-linecap: square"/>
   </g>
   <g id="line2d_79">
    <path d="M 73.832727 275.526795 
L 77.90108 275.574273 
L 79.528421 275.801872 
L 83.596774 276.843079 
L 85.224115 276.827923 
L 88.478797 276.738852 
L 92.54715 276.528663 
L 94.988161 276.816368 
L 96.615502 276.989876 
L 98.242843 276.924935 
L 100.683855 276.775977 
L 102.311196 276.742405 
L 105.565878 276.412583 
L 107.193219 276.534603 
L 110.447902 276.948427 
L 116.143595 276.653052 
L 119.398278 276.379046 
L 121.025619 276.558978 
L 123.46663 276.941607 
L 125.093971 276.923934 
L 127.534983 276.782988 
L 129.975995 276.704558 
L 132.417006 276.565888 
L 134.044347 276.787765 
L 138.1127 277.706567 
L 142.994723 277.534644 
L 146.249405 277.309198 
L 147.876746 277.472806 
L 151.945099 278.176719 
L 158.454463 277.880546 
L 160.081805 277.843244 
L 161.709146 278.107972 
L 164.963828 278.973227 
L 166.591169 279.061203 
L 172.286863 278.892397 
L 173.914204 278.928898 
L 175.541545 279.226899 
L 179.609897 280.378777 
L 181.237239 280.403734 
L 186.119262 280.252578 
L 187.746603 280.286086 
L 189.373944 280.610682 
L 193.442297 281.872141 
L 195.069638 281.99836 
L 200.765332 282.013696 
L 202.392673 282.258485 
L 204.020014 282.827902 
L 208.088366 284.558175 
L 209.715707 284.758595 
L 215.411401 284.905356 
L 217.038742 285.27174 
L 218.666083 285.87632 
L 221.920766 287.275509 
L 223.548107 287.689483 
L 225.175448 287.824266 
L 229.2438 287.902613 
L 230.871141 288.163549 
L 232.498483 288.64753 
L 237.380506 290.369085 
L 239.007847 290.620355 
L 241.448859 290.685046 
L 243.88987 290.780669 
L 246.330882 291.173982 
L 252.026576 292.412657 
L 253.653917 292.54014 
L 259.34961 292.702329 
L 263.417963 293.186169 
L 265.858975 293.478881 
L 269.927327 293.563059 
L 273.18201 293.669321 
L 282.946056 294.151631 
L 287.828079 294.261834 
L 297.592126 294.526998 
L 318.74756 294.532581 
L 348.039699 294.772395 
L 358.617416 294.834482 
L 387.909556 294.867645 
L 398.487273 294.949175 
L 398.487273 294.949175 
" clip-path="url(#p471bacb980)" style="fill: none; stroke: #ff7f0e; stroke-width: 1.5; stroke-linecap: square"/>
   </g>
   <g id="patch_14">
    <path d="M 57.6 307.584 
L 57.6 229.315765 
" style="fill: none; stroke: #000000; stroke-width: 0.8; stroke-linejoin: miter; stroke-linecap: square"/>
   </g>
   <g id="patch_15">
    <path d="M 414.72 307.584 
L 414.72 229.315765 
" style="fill: none; stroke: #000000; stroke-width: 0.8; stroke-linejoin: miter; stroke-linecap: square"/>
   </g>
   <g id="patch_16">
    <path d="M 57.6 307.584 
L 414.72 307.584 
" style="fill: none; stroke: #000000; stroke-width: 0.8; stroke-linejoin: miter; stroke-linecap: square"/>
   </g>
   <g id="patch_17">
    <path d="M 57.6 229.315765 
L 414.72 229.315765 
" style="fill: none; stroke: #000000; stroke-width: 0.8; stroke-linejoin: miter; stroke-linecap: square"/>
   </g>
  </g>
 </g>
 <defs>
  <clipPath id="pc68c12d423">
   <rect x="57.6" y="41.472" width="357.12" height="78.268235"/>
  </clipPath>
  <clipPath id="p3db85ccf80">
   <rect x="57.6" y="135.393882" width="357.12" height="78.268235"/>
  </clipPath>
  <clipPath id="p471bacb980">
   <rect x="57.6" y="229.315765" width="357.12" height="78.268235"/>
  </clipPath>
 </defs>
</svg>
